Coordinates
version=1
nRows=15
nColumns=34
inDegrees=yes

Units are S.I. units (second, meters, Newtons, ...)
If the header above contains a line with 'inDegrees', this indicates whether rotational values are in degrees (yes) or radians (no).

endheader
time	pelvis_tilt	pelvis_list	pelvis_rotation	pelvis_tx	pelvis_ty	pelvis_tz	hip_flexion_r	hip_adduction_r	hip_rotation_r	knee_angle_r	ankle_angle_r	subtalar_angle_r	mtp_angle_r	hip_flexion_l	hip_adduction_l	hip_rotation_l	knee_angle_l	ankle_angle_l	subtalar_angle_l	mtp_angle_l	lumbar_extension	lumbar_bending	lumbar_rotation	arm_flex_r	arm_add_r	arm_rot_r	elbow_flex_r	pro_sup_r	arm_flex_l	arm_add_l	arm_rot_l	elbow_flex_l	pro_sup_l
      5.48333330	     -4.38937015	    -13.12912857	    -58.88542625	      1.63031897	      1.10207366	      6.13436009	     -1.02215110	     10.30732630	     -0.81178798	     21.62990309	     18.49603868	      9.34787284	      0.00000000	     11.58863513	     -9.66509591	     -2.30025210	     44.29595348	      7.23964623	     -3.53281371	      0.00000000	    -15.86216167	     10.92825587	     -1.71398712	      9.85570254	     -4.31002109	     11.10784629	     20.19585334	    119.74817918	     11.48874659	     -4.93981975	     15.16726462	     15.58951671	    116.64090596
      5.50000000	     -4.08709967	    -13.12450481	    -57.89427559	      1.63298046	      1.10178901	      6.13920633	     -1.70671725	     10.26502402	     -1.17267958	     21.26586212	     18.79725652	      8.80572356	      0.00000000	     11.23789560	     -9.55473167	     -2.96726894	     43.58651614	      7.90806524	     -3.66315027	      0.00000000	    -15.85334067	     10.90861473	     -2.05385097	      9.88851831	     -4.30763851	     11.50440672	     20.11326632	    119.74817918	     11.50818638	     -4.30514163	     14.29123457	     14.27582526	    116.21336593
      5.51666670	     -3.62124991	    -13.71704826	    -57.11797942	      1.63535490	      1.10317136	      6.14401563	     -3.54208424	     10.40878869	     -1.50285270	     19.94229913	     18.62712061	      8.73388576	      0.00000000	      9.75389773	     -9.44234099	     -2.77497862	     42.08808167	      8.33948068	     -3.65909651	      0.00000000	    -16.79480365	     11.01601296	     -1.55686131	      9.97089677	     -4.49317916	     12.71939671	     19.73602517	    119.74817918	     11.39327609	     -3.67137854	     11.45569242	     14.44060344	    114.59382266
      5.53333330	     -3.79808930	    -13.56066734	    -56.88408341	      1.63557980	      1.10262740	      6.14748217	     -3.66790546	     10.65776473	     -1.70532458	     19.59156119	     18.94825543	      8.62786308	      0.00000000	      9.75004518	     -9.41422441	     -1.75641543	     41.10595184	      8.28815239	     -3.32404024	      0.00000000	    -16.87838807	     11.12374451	     -0.20422437	      9.82714790	     -4.77306996	     12.78074934	     19.42078614	    119.74817918	     11.65508014	     -3.04591080	     11.20696677	     14.43747363	    114.46510027
      5.55000000	     -3.03237210	    -14.07230204	    -56.16492529	      1.63662654	      1.10464818	      6.15092444	     -5.50347895	     10.57295216	     -1.71667810	     18.24249341	     18.76398402	      8.50367394	      0.00000000	      8.33868529	     -8.90406200	     -1.22987135	     39.39730523	      7.00161296	     -4.37539158	      0.00000000	    -17.94383519	     10.79206051	      0.32067422	      9.74244215	     -5.05067983	     13.19883146	     19.61293152	    119.73352625	     11.88707669	     -2.21635172	      7.86489254	     14.57143733	    112.75606514
      5.56666670	     -2.33922032	    -13.53464220	    -55.68280824	      1.63520909	      1.10656956	      6.15526176	     -6.23573033	     10.09900734	     -1.38849299	     17.01185379	     18.52372532	      7.95115499	      0.00000000	      8.17953280	     -8.48527011	     -2.37550077	     38.06990152	      5.87401371	     -4.30876501	      0.00000000	    -18.05571388	      9.64673248	      0.75340308	      9.42355585	     -4.69302134	     13.94364055	     20.38901744	    119.74776150	     12.16474566	     -2.15757255	      6.54898306	     14.63358576	    112.14624994
      5.58333330	     -1.19741800	    -12.83104743	    -55.64830224	      1.63493912	      1.11010226	      6.16023303	     -7.52583451	      9.03327238	     -0.22410728	     15.15360202	     17.78314586	      7.15556895	      0.00000000	      7.01430388	     -7.41560269	     -3.97333655	     35.57896848	      4.78259109	     -3.68372371	      0.00000000	    -18.38451572	      7.93711253	      1.24734873	      9.44532930	     -4.36335534	     15.08738146	     20.66005927	    119.70984066	     11.89337679	     -1.89520374	      4.54010976	     15.28584504	    111.26102194
      5.60000000	     -0.70496533	    -11.81213411	    -55.71601831	      1.63517491	      1.11180831	      6.16430627	     -7.46963363	      8.11955993	      0.10156106	     14.50120309	     17.64437709	      7.03603166	      0.00000000	      6.62086042	     -6.54282264	     -5.10565900	     33.04746549	      3.23637086	     -2.92051983	      0.00000000	    -18.02473170	      6.66615208	      2.12391679	      8.91402517	     -4.56136063	     15.71985330	     21.67298930	    119.72259372	     11.54790966	     -1.42557963	      3.69310680	     16.11088162	    110.92639470
      5.61666670	     -0.80484883	    -10.90250508	    -55.67647208	      1.63551507	      1.11306853	      6.16800815	     -7.22376305	      7.77719499	      0.07229718	     13.62932785	     17.01462201	      7.24027410	      0.00000000	      6.90208017	     -6.13722389	     -5.38264477	     30.94690642	      1.58109600	     -2.01808304	      0.00000000	    -17.13076939	      6.14190146	      2.84239605	      8.67698556	     -4.58166882	     15.93761679	     22.24293821	    119.74817918	     11.31930761	     -0.97313532	      3.55057920	     16.61606484	    110.87090657
      5.63333330	      0.83689286	     -9.70396573	    -57.32425402	      1.63473337	      1.11642011	      6.17351114	     -7.30431601	      5.39395196	      1.67543856	     13.84493273	     17.56718639	      7.75974044	      0.00000000	      4.97272819	     -4.03531955	     -8.06943746	     27.09419849	     -0.16942125	     -1.52273342	      0.00000000	    -17.13761683	      3.33445305	      4.63834808	      8.29202618	     -4.60486533	     16.79001409	     23.99699813	    119.64387186	     10.79550276	     -0.59665822	      1.19421090	     17.96833452	    110.17775819
      5.65000000	      1.40461023	     -8.21225919	    -58.07320516	      1.63364998	      1.11795348	      6.17722779	     -6.34435664	      4.01575007	      2.40405570	     13.93519168	     17.70608832	      7.80846005	      0.00000000	      4.64858380	     -2.60221105	     -8.57813820	     23.90106905	     -1.46045110	      0.20616346	      0.00000000	    -16.30333384	      1.69933473	      5.57366759	      8.07879376	     -4.60604409	     17.30890411	     25.44770987	    119.65583721	     10.59471572	     -0.23562826	      0.04162175	     18.92179852	    109.90135346
      5.66666670	      2.07696342	     -6.63264701	    -59.27528628	      1.63274722	      1.11884347	      6.18167924	     -4.94597799	      2.47811178	      3.64119875	     14.81870158	     18.10643889	      7.74740139	      0.00000000	      3.92878422	     -0.92217089	     -8.14440036	     19.99262119	     -2.59650275	      2.74122894	      0.00000000	    -15.28519356	     -0.15075471	      7.32338028	      7.75150606	     -4.71269058	     18.14427612	     26.38218750	    119.74817918	     10.68049021	      0.35285702	     -1.28268017	     19.62857979	    109.60827518
      5.68333330	      2.86372906	     -5.27481570	    -61.64039298	      1.63182068	      1.11921776	      6.18820502	     -3.52882649	      0.94830000	      6.28294723	     16.23213257	     18.96512968	      7.53317514	      0.00000000	      2.49928415	      0.60440559	     -9.92868000	     15.62892470	     -3.32277611	      5.38342764	      0.00000000	    -14.30626522	     -1.97644216	      9.76913390	      7.57828437	     -4.97324335	     19.40116865	     27.18056183	    119.71435207	     10.07730267	      1.16974296	     -3.95401368	     20.28952338	    109.13510160
      5.70000000	      2.86211716	     -4.12461175	    -62.08477953	      1.63172424	      1.11756330	      6.19240776	     -2.14324686	      0.56285622	      7.40139335	     17.19774475	     19.63691919	      6.64283448	      0.00000000	      1.72544462	      1.39181669	     -8.17345876	     11.72717435	     -2.15618578	      8.09609595	      0.00000000	    -13.29564321	     -2.55495848	     10.66237283	      7.46990709	     -5.10134232	     19.81626612	     27.77980698	    119.74780807	     10.05503558	      1.57712888	     -4.58849093	     20.35654602	    109.04779045
      5.71666670	      3.31643559	     -3.06310251	    -63.61754926	      1.63085423	      1.11599121	      6.19637506	     -0.20583510	      0.00056440	     10.85338439	     19.65734340	     20.37349504	      4.39340534	      0.00000000	      0.66641864	      2.62837553	     -7.93978004	      8.30380220	      0.73225328	     10.75128574	      0.00000000	    -12.82078732	     -3.61236664	     11.79106188	      7.53064890	     -5.31462065	     20.51520809	     28.96560714	    119.72555869	      9.76986142	      1.81152197	     -6.54022981	     20.97367147	    108.80920421
